<svg width="524" height="399" viewBox="0 0 524 399" fill="none" xmlns="http://www.w3.org/2000/svg">
<path d="M523.5 92.8448C523.5 261.729 406.352 398.5 262 398.5C189.787 398.5 124.424 370.077 77.1091 317.676C29.7929 265.274 0.5 188.861 0.5 92.8448C0.5 50.6072 8.78631 26.191 23.3105 13.2076C37.8264 0.231722 58.7216 -1.45615 84.3096 2.16576C102.774 4.77928 123.582 10.1401 146.069 15.9334C154.741 18.1674 163.662 20.4658 172.795 22.6957C205.583 30.7016 241.047 37.8102 277.283 37.8102C313.522 37.8102 347.078 30.7008 377.007 22.693C386.858 20.0571 396.309 17.3267 405.33 14.7201C423.747 9.39909 440.377 4.59428 454.986 2.16391C476.741 -1.45534 493.782 0.237097 505.427 13.1694C517.116 26.1507 523.5 50.5833 523.5 92.8448Z" fill="#A2886A"/>
<path d="M523.5 92.8448C523.5 261.729 406.352 398.5 262 398.5C189.787 398.5 124.424 370.077 77.1091 317.676C29.7929 265.274 0.5 188.861 0.5 92.8448C0.5 50.6072 8.78631 26.191 23.3105 13.2076C37.8264 0.231722 58.7216 -1.45615 84.3096 2.16576C102.774 4.77928 123.582 10.1401 146.069 15.9334C154.741 18.1674 163.662 20.4658 172.795 22.6957C205.583 30.7016 241.047 37.8102 277.283 37.8102C313.522 37.8102 347.078 30.7008 377.007 22.693C386.858 20.0571 396.309 17.3267 405.33 14.7201C423.747 9.39909 440.377 4.59428 454.986 2.16391C476.741 -1.45534 493.782 0.237097 505.427 13.1694C517.116 26.1507 523.5 50.5833 523.5 92.8448Z" stroke="black"/>
<path d="M523.5 92.8448C523.5 261.729 406.352 398.5 262 398.5C189.787 398.5 124.424 370.077 77.1091 317.676C29.7929 265.274 0.5 188.861 0.5 92.8448C0.5 50.6072 8.78631 26.191 23.3105 13.2076C37.8264 0.231722 58.7216 -1.45615 84.3096 2.16576C102.774 4.77928 123.582 10.1401 146.069 15.9334C154.741 18.1674 163.662 20.4658 172.795 22.6957C205.583 30.7016 241.047 37.8102 277.283 37.8102C313.522 37.8102 347.078 30.7008 377.007 22.693C386.858 20.0571 396.309 17.3267 405.33 14.7201C423.747 9.39909 440.377 4.59428 454.986 2.16391C476.741 -1.45534 493.782 0.237097 505.427 13.1694C517.116 26.1507 523.5 50.5833 523.5 92.8448Z" stroke="black" stroke-opacity="0.2"/>
</svg>
